<?xml version="1.0" standalone="no"?>
<!DOCTYPE svg PUBLIC "-//W3C//DTD SVG 20010904//EN"
 "http://www.w3.org/TR/2001/REC-SVG-20010904/DTD/svg10.dtd">
<svg version="1.0" xmlns="http://www.w3.org/2000/svg"
 width="700.000000pt" height="700.000000pt" viewBox="0 0 700.000000 700.000000"
 preserveAspectRatio="xMidYMid meet">
<metadata>
Created by potrace 1.11, written by Peter Selinger 2001-2013
</metadata>
<g transform="translate(0.000000,700.000000) scale(0.100000,-0.100000)"
fill="#000000" stroke="none">
<path d="M3309 6996 c-2 -2 -33 -7 -69 -10 -99 -9 -195 -22 -225 -30 -5 -2
-28 -6 -50 -10 -127 -25 -394 -106 -461 -141 -16 -8 -33 -15 -38 -15 -16 0
-244 -119 -336 -175 -344 -209 -649 -514 -864 -864 -60 -98 -150 -271 -184
-356 -47 -117 -74 -190 -78 -213 -3 -14 -9 -32 -13 -41 -12 -24 -69 -258 -77
-316 -3 -27 -8 -52 -9 -55 -2 -3 -6 -37 -10 -75 -4 -39 -9 -83 -12 -100 -3
-16 -6 -462 -8 -990 -2 -864 -6 -1121 -20 -1295 -2 -30 -7 -95 -10 -145 -11
-153 -13 -179 -19 -225 -2 -25 -8 -76 -12 -115 -3 -38 -8 -78 -10 -88 -2 -10
-6 -45 -9 -78 -4 -33 -8 -68 -10 -78 -2 -9 -6 -44 -10 -76 -4 -33 -9 -71 -11
-85 -8 -47 -45 -305 -50 -350 -3 -25 -7 -52 -9 -60 -2 -8 -7 -40 -10 -70 -3
-30 -8 -62 -10 -70 -2 -8 -7 -35 -10 -60 -6 -51 -12 -90 -35 -255 -6 -44 -13
-91 -15 -105 -2 -14 -7 -47 -11 -75 -3 -27 -8 -57 -9 -66 -4 -20 -16 -114 -21
-154 -4 -39 30 -109 64 -131 35 -24 140 -27 223 -8 94 21 171 63 291 157 58
46 121 90 140 98 20 9 68 14 123 14 110 0 130 -9 268 -118 162 -126 234 -156
397 -162 181 -8 290 32 458 167 133 107 147 113 262 113 86 0 100 -3 147 -29
29 -16 68 -43 87 -61 69 -63 169 -129 237 -155 72 -29 117 -35 239 -34 169 1
246 33 435 183 106 84 162 105 264 99 84 -5 131 -28 249 -123 145 -117 232
-154 381 -161 201 -9 339 46 516 208 60 56 111 73 215 73 81 0 102 -4 140 -24
25 -13 47 -27 50 -31 11 -15 164 -132 203 -154 65 -38 160 -66 246 -72 66 -5
84 -3 118 15 46 23 82 83 78 129 -3 29 -16 135 -21 167 -1 11 -5 40 -9 65 -3
25 -10 72 -15 105 -5 33 -12 80 -15 105 -8 59 -12 86 -20 138 -4 23 -8 52 -9
65 -2 12 -6 40 -9 62 -4 22 -9 58 -12 80 -2 22 -12 90 -21 150 -9 61 -17 119
-19 130 -6 48 -18 132 -21 149 -2 10 -6 44 -10 75 -3 31 -8 58 -9 61 -2 3 -6
39 -10 80 -4 41 -9 78 -11 81 -2 3 -6 35 -9 70 -2 35 -7 80 -10 99 -11 82 -16
135 -29 323 -26 355 -29 464 -31 1397 -1 503 -5 942 -9 975 -4 33 -9 76 -11
95 -3 19 -7 55 -10 80 -3 25 -10 65 -15 90 -5 25 -12 56 -14 70 -9 57 -58 235
-89 327 -84 246 -230 531 -364 711 -21 28 -45 60 -53 72 -16 23 -19 27 -90
111 -215 256 -499 481 -810 642 -159 82 -418 178 -543 203 -10 2 -26 5 -35 8
-9 3 -29 7 -45 10 -15 3 -35 7 -45 10 -9 3 -33 7 -52 10 -73 10 -126 18 -155
22 -36 6 -471 15 -476 10z"/>
</g>
</svg>
