<?xml version="1.0" encoding="iso-8859-1"?>
<!-- Generator: Adobe Illustrator 19.0.0, SVG Export Plug-In . SVG Version: 6.00 Build 0)  -->
<svg version="1.1" id="Capa_1" xmlns="http://www.w3.org/2000/svg" xmlns:xlink="http://www.w3.org/1999/xlink" x="0px" y="0px"
	 viewBox="0 0 511.988 511.988" style="enable-background:new 0 0 511.988 511.988;" xml:space="preserve">
<path style="fill:#303C42;" d="M455.618,404.508c-5.062-35.364-7.624-71.396-7.624-107.104v-99.209
	c0-104.405-78.729-191.281-179.249-197.792c-53.751-3.405-104.896,14.803-144.021,51.469
	C86.119,88.05,63.994,139.113,63.994,191.988v105.417c0,35.708-2.562,71.74-7.625,107.104l-13.604,95.302
	c-0.437,3.063,0.478,6.167,2.5,8.499c2.02,2.334,4.979,3.678,8.062,3.678c16.563,0,25.25-7.302,32.228-13.167
	c5.856-4.917,9.73-8.166,18.543-8.166c8.792,0,12.666,3.249,18.52,8.166c6.959,5.865,15.646,13.167,32.23,13.167
	c16.563,0,25.25-7.302,32.228-13.178c5.835-4.907,9.687-8.156,18.46-8.156c8.77,0,12.625,3.249,18.458,8.156
	c6.978,5.875,15.646,13.178,32.209,13.178c16.561,0,25.229-7.302,32.207-13.178c5.835-4.907,9.687-8.156,18.46-8.156
	c8.77,0,12.604,3.249,18.436,8.156c6.959,5.875,15.624,13.178,32.166,13.178s25.188-7.313,32.147-13.188
	c5.811-4.905,9.666-8.145,18.396-8.145c8.749,0,12.604,3.241,18.436,8.156c6.98,5.865,15.646,13.178,32.209,13.178
	c3.082,0,6.041-1.344,8.062-3.678c2.022-2.332,2.938-5.436,2.5-8.499L455.618,404.508z"/>
<path style="fill:#E4E5E6;" d="M440.203,482.499c-6.98-5.875-15.646-13.178-32.188-13.178c-16.542,0-25.188,7.313-32.147,13.188
	c-5.811,4.905-9.666,8.145-18.396,8.145c-8.749,0-12.582-3.241-18.415-8.156c-6.959-5.865-15.627-13.178-32.188-13.178
	c-16.563,0-25.231,7.302-32.209,13.178c-5.833,4.907-9.688,8.156-18.458,8.156c-8.772,0-12.625-3.249-18.46-8.156
	c-6.978-5.875-15.646-13.178-32.207-13.178c-16.563,0-25.231,7.302-32.209,13.167c-5.833,4.917-9.688,8.166-18.479,8.166
	c-8.791,0-12.668-3.249-18.522-8.166c-6.957-5.865-15.646-13.167-32.228-13.167c-16.585,0-25.271,7.302-32.25,13.167
	c-2.042,1.719-3.855,3.23-5.687,4.469l11.332-79.428c5.188-36.354,7.834-73.406,7.834-110.125V191.988
	c0-47.689,19.166-91.917,53.98-124.553c34.771-32.593,80.166-48.843,128.062-45.739c89.312,5.781,159.292,83.313,159.292,176.499
	v99.209c0,36.719,2.645,73.771,7.833,110.125l11.332,79.407C443.994,485.697,442.223,484.197,440.203,482.499z"/>
<path style="opacity:0.5;fill:#FFFFFF;enable-background:new    ;" d="M115.575,407.528c4.082-36.353,6.163-73.405,6.163-110.124
	V191.988c0-47.689,15.077-91.917,42.464-124.553c23.893-28.47,54.165-44.46,86.553-45.983
	c-41.704,1.206-80.727,17.188-111.448,45.983c-34.814,32.637-53.979,76.865-53.979,124.553v105.417
	c0,36.719-2.646,73.771-7.833,110.124l-11.333,79.428c1.833-1.24,3.646-2.749,5.688-4.469c6.979-5.865,15.665-13.167,32.25-13.167
	c1.682,0,2.96,0.359,4.486,0.5L115.575,407.528z"/>
<path style="opacity:0.1;enable-background:new    ;" d="M434.494,407.528c-5.188-36.353-7.833-73.405-7.833-110.124v-99.21
	c0-93.185-69.98-170.717-159.292-176.499c-3.82-0.247-7.591-0.165-11.376-0.168c2.977,0.003,5.944-0.079,8.949,0.168
	c70.258,5.781,125.309,83.314,125.309,176.499v99.21c0,36.719,2.081,73.771,6.163,110.124l6.995,62.309
	c1.563-0.15,2.879-0.516,4.607-0.516c16.542,0,25.208,7.302,32.188,13.177c2.021,1.698,3.791,3.198,5.624,4.438L434.494,407.528z"/>
<g>
	<path style="fill:#303C42;" d="M191.994,149.321c-15.729,0-21.333,22.042-21.333,42.667s5.604,42.667,21.333,42.667
		c15.729,0,21.333-22.042,21.333-42.667S207.723,149.321,191.994,149.321z"/>
	<path style="fill:#303C42;" d="M319.994,149.321c-15.729,0-21.333,22.042-21.333,42.667s5.604,42.667,21.333,42.667
		c15.729,0,21.333-22.042,21.333-42.667S335.723,149.321,319.994,149.321z"/>
</g>
<linearGradient id="SVGID_1_" gradientUnits="userSpaceOnUse" x1="-44.6959" y1="637.3502" x2="-22.7313" y2="627.1097" gradientTransform="matrix(21.3333 0 0 -21.3333 996.4568 13791.5313)">
	<stop  offset="0" style="stop-color:#FFFFFF;stop-opacity:0.2"/>
	<stop  offset="1" style="stop-color:#FFFFFF;stop-opacity:0"/>
</linearGradient>
<path style="fill:url(#SVGID_1_);" d="M455.618,404.508c-5.062-35.364-7.624-71.396-7.624-107.104v-99.209
	c0-104.405-78.729-191.281-179.249-197.792c-53.751-3.405-104.896,14.803-144.021,51.469
	C86.119,88.05,63.994,139.113,63.994,191.988v105.417c0,35.708-2.562,71.74-7.625,107.104l-13.604,95.302
	c-0.437,3.063,0.478,6.167,2.5,8.499c2.02,2.334,4.979,3.678,8.062,3.678c16.563,0,25.25-7.302,32.228-13.167
	c5.856-4.917,9.73-8.166,18.543-8.166c8.792,0,12.666,3.249,18.52,8.166c6.959,5.865,15.646,13.167,32.23,13.167
	c16.563,0,25.25-7.302,32.228-13.178c5.835-4.907,9.687-8.156,18.46-8.156c8.77,0,12.625,3.249,18.458,8.156
	c6.978,5.875,15.646,13.178,32.209,13.178c16.561,0,25.229-7.302,32.207-13.178c5.835-4.907,9.687-8.156,18.46-8.156
	c8.77,0,12.604,3.249,18.436,8.156c6.959,5.875,15.624,13.178,32.166,13.178s25.188-7.313,32.147-13.188
	c5.811-4.905,9.666-8.145,18.396-8.145c8.749,0,12.604,3.241,18.436,8.156c6.98,5.865,15.646,13.178,32.209,13.178
	c3.082,0,6.041-1.344,8.062-3.678c2.022-2.332,2.938-5.436,2.5-8.499L455.618,404.508z"/>
<g>
</g>
<g>
</g>
<g>
</g>
<g>
</g>
<g>
</g>
<g>
</g>
<g>
</g>
<g>
</g>
<g>
</g>
<g>
</g>
<g>
</g>
<g>
</g>
<g>
</g>
<g>
</g>
<g>
</g>
</svg>
